HIERARCHY
ROOT Hips
{
	OFFSET 0.000000 88.474243 0.000000
	CHANNELS 6 Xposition Yposition Zposition Zrotation Yrotation Xrotation 
	JOINT Hips_Spine
	{
		OFFSET 0.000000 0.000000 0.000000
		CHANNELS 3 Zrotation Yrotation Xrotation
		JOINT Spine
		{
			OFFSET 0.005100 8.711998 -0.691000
			CHANNELS 3 Zrotation Yrotation Xrotation
			JOINT Spine1
			{
				OFFSET -0.009200 8.660301 -1.275000
				CHANNELS 3 Zrotation Yrotation Xrotation
				JOINT Spine2
				{
					OFFSET 0.006300 9.852501 -1.857000
					CHANNELS 3 Zrotation Yrotation Xrotation
					JOINT Spine2_Neck
					{
						OFFSET 0.000000 0.000000 0.000000
						CHANNELS 3 Zrotation Yrotation Xrotation
						JOINT Neck
						{
							OFFSET 0.016300 11.420799 -0.263300
							CHANNELS 3 Zrotation Yrotation Xrotation
							End Site #name: Head
							{
								OFFSET -0.019200 9.262405 2.362500
							}
						}
					}
					JOINT Spine2_LeftShoulder
					{
						OFFSET 0.000000 0.000000 0.000000
						CHANNELS 3 Zrotation Yrotation Xrotation
						JOINT LeftShoulder
						{
							OFFSET 5.616900 6.732201 -0.345700
							CHANNELS 3 Zrotation Yrotation Xrotation
							JOINT LeftArm
							{
								OFFSET 10.664888 -0.183372 -2.440700
								CHANNELS 3 Zrotation Yrotation Xrotation
								JOINT LeftForeArm
								{
									OFFSET 27.459126 0.000000 0.000000
									CHANNELS 3 Zrotation Yrotation Xrotation
									End Site #name: LeftHand
									{
										OFFSET 21.306858 0.000000 0.000000
									}
								}
							}
						}
					}
					JOINT Spine2_RightShoulder
					{
						OFFSET 0.000000 0.000000 0.000000
						CHANNELS 3 Zrotation Yrotation Xrotation
						JOINT RightShoulder
						{
							OFFSET -5.580300 6.737503 -0.344400
							CHANNELS 3 Zrotation Yrotation Xrotation
							JOINT RightArm
							{
								OFFSET -10.679335 -0.188484 -2.383900
								CHANNELS 3 Zrotation Yrotation Xrotation
								JOINT RightForeArm
								{
									OFFSET -27.503529 0.000000 0.000000
									CHANNELS 3 Zrotation Yrotation Xrotation
									End Site #name: RightHand
									{
										OFFSET -21.306808 0.000000 0.000000
									}
								}
							}
						}
					}
				}
			}
		}
	}
	JOINT Hips_LeftUpLeg
	{
		OFFSET 0.000000 0.000000 0.000000
		CHANNELS 3 Zrotation Yrotation Xrotation
		JOINT LeftUpLeg
		{
			OFFSET 6.857700 -6.739601 0.312100
			CHANNELS 3 Zrotation Yrotation Xrotation
			JOINT LeftLeg
			{
				OFFSET -0.367590 -34.731552 -4.572400
				CHANNELS 3 Zrotation Yrotation Xrotation
				End Site #name: LeftFoot
				{
					OFFSET 0.367590 -34.656704 -6.067400
				}
			}
		}
	}
	JOINT Hips_RightUpLeg
	{
		OFFSET 0.000000 0.000000 0.000000
		CHANNELS 3 Zrotation Yrotation Xrotation
		JOINT RightUpLeg
		{
			OFFSET -6.876100 -6.733299 0.301000
			CHANNELS 3 Zrotation Yrotation Xrotation
			JOINT RightLeg
			{
				OFFSET 0.347353 -34.795158 -4.515900
				CHANNELS 3 Zrotation Yrotation Xrotation
				End Site #name: RightFoot
				{
					OFFSET -0.347353 -34.589367 -6.070300
				}
			}
		}
	}
}
MOTION
Frames: 17
Frame Time: 0.041667
5.662193 0.892205 1.068443 -4.223083 -8.843432 -0.741219 -0.000000 -0.000000 -0.000000 -0.263603 0.663515 4.437698 -0.818503 1.313864 8.742412 0.000000 0.000000 0.000000 -0.837992 1.243872 8.609830 1.389065 -2.114689 2.707887 -0.804407 1.296106 8.730001 2.988381 1.202996 0.388150 -74.517338 -11.623648 25.924913 -179.098593 -86.782783 178.783232 -0.835124 1.294882 8.661074 -3.932655 -1.957024 1.126248 80.037513 -9.333070 3.719033 -174.704788 82.639194 -175.010091 -0.000000 -0.000000 0.000000 0.774384 1.057676 -20.066939 -0.898893 0.438159 28.565665 0.000000 0.000000 -0.000000 -8.691534 0.338856 -15.160393 0.095074 -0.910342 17.554251 
5.849264 0.937316 1.097095 -4.176839 -9.010726 -0.738364 -0.000000 -0.000000 -0.000000 -0.255611 0.670778 4.397306 -0.794826 1.299253 8.661470 0.000000 0.000000 0.000000 -0.837997 1.231902 8.527978 1.112906 -2.480257 2.870386 -0.783605 1.285046 8.651033 2.955696 1.184732 0.381225 -74.592765 -11.202334 25.712047 -179.197301 -86.791695 178.890559 -0.818718 1.284807 8.586766 -3.893984 -1.905004 1.124027 80.170245 -9.532295 3.462156 -174.607748 82.661138 -174.919260 -0.000000 -0.000000 0.000000 0.571444 0.994879 -19.900612 -0.877825 0.436617 28.168921 0.000000 0.000000 -0.000000 -8.796922 0.633207 -15.078230 0.081861 -0.906408 17.134577 
6.021048 0.981524 1.122439 -4.147739 -9.174661 -0.756899 -0.000000 -0.000000 -0.000000 -0.248853 0.670990 4.361073 -0.770934 1.287022 8.582140 0.000000 0.000000 0.000000 -0.829144 1.225169 8.445809 1.011191 -2.630284 2.934661 -0.764930 1.277452 8.578819 2.934412 1.192238 0.373589 -74.683192 -10.762270 25.508431 -179.430653 -86.770801 179.129453 -0.804783 1.281466 8.514402 -3.871300 -1.839644 1.122178 80.292644 -9.706988 3.261410 -174.549672 82.676193 -174.868379 -0.000000 -0.000000 0.000000 0.377401 0.943019 -19.732107 -0.856078 0.433447 27.794390 0.000000 0.000000 -0.000000 -8.907075 0.861770 -15.011708 0.055915 -0.919646 16.790545 
6.180410 1.022334 1.142738 -4.136193 -9.381846 -0.792654 -0.000000 -0.000000 0.000000 -0.241978 0.664601 4.313347 -0.747506 1.279420 8.509155 0.000000 0.000000 0.000000 -0.816358 1.220372 8.362106 0.930637 -2.752861 2.976501 -0.746124 1.271463 8.507838 2.922701 1.197770 0.371219 -74.784511 -10.345418 25.305161 -179.671744 -86.764883 179.379156 -0.790962 1.282476 8.443654 -3.839356 -1.781014 1.116427 80.403535 -9.831919 3.131995 -174.509740 82.662386 -174.836659 -0.000000 -0.000000 0.000000 0.196078 0.900830 -19.551179 -0.824529 0.437674 27.462199 -0.000000 0.000000 -0.000000 -9.026146 1.007838 -14.955718 0.030912 -0.936872 16.519396 
6.328666 1.058604 1.154051 -4.138375 -9.635542 -0.817342 -0.000000 -0.000000 0.000000 -0.236105 0.652778 4.272465 -0.724970 1.276332 8.446910 0.000000 0.000000 0.000000 -0.802340 1.216281 8.283593 0.861331 -2.829774 2.962687 -0.730198 1.267170 8.443923 2.922531 1.207584 0.372939 -74.882521 -9.978849 25.119606 -179.894725 -86.795445 179.609649 -0.777292 1.286952 8.382775 -3.803307 -1.727961 1.105637 80.472950 -9.913576 3.059507 -174.491105 82.634950 -174.827914 -0.000000 -0.000000 0.000000 0.026632 0.876468 -19.367346 -0.793661 0.444471 27.168585 -0.000000 0.000000 -0.000000 -9.149981 1.096646 -14.941497 0.045053 -0.950239 16.340572 
6.457924 1.086385 1.153222 -4.132456 -9.882774 -0.840163 -0.000000 -0.000000 0.000000 -0.232093 0.639017 4.250379 -0.704080 1.278623 8.397275 0.000000 0.000000 0.000000 -0.787163 1.213902 8.223581 0.816618 -2.884267 2.938457 -0.716711 1.265787 8.390313 2.931192 1.218784 0.377650 -74.952763 -9.660094 24.946005 179.749032 -86.833218 179.970582 -0.762391 1.291920 8.334725 -3.760702 -1.700727 1.089679 80.505740 -9.960702 3.036903 -174.498104 82.598133 -174.839277 -0.000000 -0.000000 0.000000 -0.133354 0.871936 -19.195109 -0.767894 0.448184 26.876986 -0.000000 0.000000 -0.000000 -9.261038 1.141973 -14.963729 0.047871 -0.953751 16.247185 
6.561121 1.104481 1.142314 -4.124153 -10.092824 -0.861266 -0.000000 -0.000000 0.000000 -0.227082 0.623478 4.247284 -0.684606 1.284229 8.358241 0.000000 0.000000 0.000000 -0.768865 1.213246 8.180670 0.796307 -2.915581 2.909277 -0.704752 1.266867 8.343314 2.951480 1.234080 0.384906 -75.007493 -9.386748 24.780678 179.345138 -86.866644 -179.618361 -0.747229 1.297507 8.297464 -3.720225 -1.686250 1.071849 80.471844 -9.993533 3.052384 -174.537108 82.550373 -174.879586 -0.000000 -0.000000 0.000000 -0.281579 0.874503 -19.041736 -0.756267 0.447880 26.637100 -0.000000 0.000000 -0.000000 -9.359765 1.156077 -15.004569 0.048279 -0.948647 16.214847 
6.631060 1.112416 1.122877 -4.112899 -10.246449 -0.886206 -0.000000 -0.000000 0.000000 -0.220301 0.609511 4.265286 -0.666089 1.293206 8.327153 0.000000 0.000000 0.000000 -0.749815 1.216433 8.148628 0.796495 -2.916345 2.878380 -0.693241 1.271075 8.301446 2.980818 1.254379 0.392811 -75.026714 -9.181733 24.626897 178.796580 -86.897678 -179.065307 -0.731184 1.304060 8.263476 -3.686829 -1.699569 1.050777 80.398996 -10.023845 3.082564 -174.616882 82.483997 -174.954346 -0.000000 -0.000000 0.000000 -0.400589 0.898999 -18.925136 -0.765984 0.453518 26.520269 -0.000000 -0.000000 -0.000000 -9.450920 1.137010 -15.062265 0.052550 -0.933915 16.264058 
6.659841 1.111916 1.099070 -4.099150 -10.351507 -0.919308 -0.000000 -0.000000 0.000000 -0.215120 0.599963 4.279123 -0.649314 1.302197 8.303416 0.000000 0.000000 0.000000 -0.729492 1.226910 8.130528 0.823066 -2.887391 2.846961 -0.681251 1.278583 8.263934 3.017542 1.286978 0.401011 -75.028509 -9.023312 24.494888 178.194612 -86.918004 -178.456852 -0.715735 1.312856 8.237231 -3.660739 -1.718019 1.029423 80.308523 -10.032101 3.142479 -174.746929 82.402816 -175.069266 -0.000000 -0.000000 0.000000 -0.491084 0.949832 -18.868813 -0.786159 0.461516 26.515662 -0.000000 -0.000000 -0.000000 -9.538003 1.080381 -15.129279 0.065202 -0.916442 16.383990 
6.639411 1.106793 1.074367 -4.032945 -10.415177 -0.943510 -0.000000 -0.000000 0.000000 -0.213043 0.594580 4.254043 -0.635601 1.314244 8.281019 0.000000 0.000000 0.000000 -0.711963 1.236650 8.117854 0.870303 -2.833375 2.796117 -0.671670 1.286550 8.238536 3.054694 1.311841 0.410081 -75.012326 -8.919399 24.410155 177.553695 -86.926736 -177.811675 -0.702795 1.322158 8.217480 -3.656645 -1.750232 1.011011 80.220241 -10.044704 3.194541 -174.901495 82.269504 -175.203218 0.000000 -0.000000 0.000000 -0.546741 1.023533 -18.853897 -0.802961 0.478398 26.627655 -0.000000 -0.000000 -0.000000 -9.616224 1.006623 -15.196522 0.085362 -0.897033 16.542530 
6.560996 1.100353 1.052506 -3.910975 -10.453091 -0.954921 -0.000000 -0.000000 -0.000000 -0.206997 0.600174 4.234768 -0.625737 1.327381 8.263230 0.000000 0.000000 0.000000 -0.695038 1.246516 8.110141 0.939480 -2.749160 2.728086 -0.664050 1.294679 8.222899 3.088991 1.337492 0.416716 -74.976684 -8.841674 24.393628 176.824634 -86.988360 -177.081355 -0.692701 1.332527 8.211447 -3.680740 -1.795128 0.997901 80.147060 -10.063100 3.261888 -175.067235 82.103751 -175.341394 0.000000 -0.000000 0.000000 -0.571990 1.115287 -18.874341 -0.813307 0.496274 26.784489 -0.000000 -0.000000 -0.000000 -9.671071 0.933617 -15.262630 0.103710 -0.875270 16.703306 
6.416682 1.096405 1.036739 -3.726119 -10.462804 -0.964133 -0.000000 -0.000000 -0.000000 -0.198853 0.614727 4.212788 -0.620810 1.341166 8.241695 0.000000 0.000000 0.000000 -0.678696 1.255182 8.100421 1.028084 -2.631404 2.620439 -0.658350 1.303320 8.220458 3.117550 1.351674 0.421457 -74.936458 -8.776576 24.419530 176.025013 -87.107896 -176.279808 -0.685470 1.343475 8.218495 -3.728979 -1.826369 0.993895 80.089331 -10.120768 3.311213 -175.227256 81.937063 -175.467289 0.000000 -0.000000 0.000000 -0.575589 1.195948 -18.893805 -0.809178 0.514730 26.905830 -0.000000 -0.000000 -0.000000 -9.699010 0.869942 -15.293075 0.121317 -0.854162 16.836982 
6.199326 1.099211 1.031536 -3.480735 -10.455380 -0.978469 -0.000000 -0.000000 -0.000000 -0.186653 0.640973 4.199266 -0.617784 1.357080 8.219070 0.000000 0.000000 0.000000 -0.661513 1.262441 8.082273 1.130717 -2.490822 2.481831 -0.652364 1.311818 8.221344 3.135442 1.363438 0.422247 -74.898358 -8.712099 24.451906 175.064044 -87.293253 -175.317034 -0.681288 1.354870 8.231418 -3.799049 -1.829156 1.002096 80.034112 -10.218674 3.367852 -175.348487 81.784859 -175.556872 0.000000 -0.000000 -0.000000 -0.562599 1.248928 -18.854202 -0.790925 0.527081 26.889967 -0.000000 -0.000000 -0.000000 -9.689270 0.834417 -15.285383 0.130705 -0.840026 16.934599 
5.910425 1.112799 1.041625 -3.202639 -10.452151 -1.010195 -0.000000 -0.000000 -0.000000 -0.176620 0.672594 4.186885 -0.615628 1.370623 8.188549 0.000000 0.000000 0.000000 -0.644012 1.277856 8.055683 1.236078 -2.325011 2.332599 -0.645038 1.321936 8.220253 3.140263 1.384306 0.419074 -74.868204 -8.625707 24.465370 173.887023 -87.561711 -174.136528 -0.674649 1.364958 8.238055 -3.878428 -1.783435 1.017120 79.961438 -10.328169 3.451231 -175.426146 81.693810 -175.610466 0.000000 0.000000 -0.000000 -0.532778 1.244239 -18.702199 -0.761440 0.537826 26.735813 -0.000000 -0.000000 -0.000000 -9.640015 0.822415 -15.219644 0.128948 -0.820932 17.001264 
5.552048 1.139488 1.069716 -2.897305 -10.388426 -1.073906 -0.000000 -0.000000 -0.000000 -0.171349 0.705687 4.174766 -0.609348 1.379656 8.144822 0.000000 0.000000 0.000000 -0.626490 1.297490 8.019851 1.328965 -2.140638 2.180282 -0.635939 1.332314 8.207258 3.131171 1.412542 0.414556 -74.845699 -8.506848 24.435890 172.327905 -87.887104 -172.573103 -0.666255 1.371820 8.229420 -3.966994 -1.736404 1.038101 79.900403 -10.502344 3.527691 -175.422647 81.662322 -175.592555 0.000000 0.000000 -0.000000 -0.478865 1.219252 -18.469983 -0.733369 0.542677 26.523694 -0.000000 -0.000000 -0.000000 -9.537852 0.842032 -15.067931 0.116099 -0.811693 16.994939 
5.124812 1.179467 1.117205 -2.597531 -10.212002 -1.180191 -0.000000 -0.000000 -0.000000 -0.173737 0.729444 4.159710 -0.594445 1.381097 8.091280 0.000000 0.000000 0.000000 -0.608756 1.319089 7.967050 1.404198 -1.952345 2.043686 -0.623441 1.340956 8.176469 3.116925 1.450462 0.406225 -74.846813 -8.331573 24.338341 170.072275 -88.262935 -170.313520 -0.656199 1.374754 8.199667 -4.077945 -1.691733 1.062016 79.859198 -10.713524 3.572685 -175.365127 81.675420 -175.530513 0.000000 0.000000 -0.000000 -0.397407 1.172741 -18.139918 -0.715464 0.554502 26.185160 -0.000000 -0.000000 -0.000000 -9.373773 0.902057 -14.831144 0.099659 -0.803572 16.939386 
4.632834 1.230416 1.182972 -2.310476 -9.989695 -1.317103 -0.000000 -0.000000 -0.000000 -0.183124 0.739663 4.123993 -0.569425 1.376065 8.020667 0.000000 0.000000 0.000000 -0.589430 1.340817 7.903555 1.455216 -1.778449 1.936694 -0.605558 1.349140 8.130646 3.096351 1.503489 0.397438 -74.905060 -8.049585 24.136725 165.845877 -88.706859 -166.086562 -0.642586 1.373163 8.144325 -4.194876 -1.687351 1.075974 79.822350 -10.881700 3.653178 -175.248330 81.711592 -175.415796 0.000000 0.000000 -0.000000 -0.293392 1.108065 -17.684438 -0.715540 0.566995 25.658087 -0.000000 -0.000000 -0.000000 -9.169669 0.950305 -14.518091 0.139431 -0.789407 16.842114 
